<?xml version="1.0" encoding="utf-8"?>
<!-- Generator: Adobe Illustrator 22.1.0, SVG Export Plug-In . SVG Version: 6.00 Build 0)  -->
<svg version="1.1" id="图层_1" xmlns="http://www.w3.org/2000/svg" xmlns:xlink="http://www.w3.org/1999/xlink" x="0px" y="0px"
	 viewBox="0 0 2267.7 2267.7" style="enable-background:new 0 0 2267.7 2267.7;" xml:space="preserve">
<g>
	<path d="M1495.6,1650.1c-7.4,17-15.1,28.7-17.6,41.5c-8.4,42.9-15.9,86.1-22,129.4c-3.7,26.6-4.2,53.7-8.8,81.2
		c-63.8-73.4-103.6-158.3-126.8-251.3c-23.5-93.7-30.8-187.5,7.9-281.6c-58.6-34-105.4-79.5-143.6-135.2
		c-33.2,31.4-65.3,61.7-96.7,91.4c9.2,30.1,21.4,59.9,27.3,90.9c13.1,68.1,9.1,136.4-4.3,204.3c-15.2,76.9-40.4,149.9-82,216.8
		c-6,9.7-13.2,18.7-23.8,33.6c-13.3-89.3-19.9-173.4-63.8-252.1c-10.7,10.2-20.7,16.9-26.8,26.2c-19.7,29.6-38.3,60-56.7,90.5
		c-27.3,45.3-52.6,92-81.7,136.2c-21.6,32.8-52.7,55.7-92.5,64c-5.1,1.1-10.4,1-20.3,1.9c43-81.3,63.7-165.8,80.7-251.5
		c16.8-85.2,22.4-171.1,25.1-258.9c-23.4-2.2-42.5-2.9-61.1-6c-55.7-9.2-107.5-30.7-155.7-58.8c-50.4-29.4-98.1-63.4-146.8-95.8
		c-8.1-5.4-14.8-12.7-21.4-21.2c150.7,69.5,303.8,71.6,459.4,22c107.8-34.4,193.7-100.2,268.6-186.6
		c-11.9-51.2-25.3-103.2-28.3-164.1c30.5,34.5,56.8,64.3,85.4,96.8c43.7-48.6,77.4-102.7,119.8-150.9c5,81.8-11.3,160.1-36.5,238.3
		c99.5,105.2,214.8,179.9,360.8,202.8c144,22.5,279.8,2.9,408-68.9c-48.9,53.7-105.7,97-166.8,135.1c-60.9,38-124.6,69.4-200.8,76.2
		c-2.1,60,10.9,117,22.7,173.6c11.7,56.2,27.6,111.8,45,166.6c17.7,55.5,39.3,109.8,75.6,160c-27.9,3.4-49.8-3.6-70.5-15.4
		c-29.2-16.6-52.3-40.3-71.5-67.1c-24.5-34.1-46.6-69.9-70.2-104.7c-15.9-23.4-31.7-47-49.2-69.3
		C1525,1676.4,1511.5,1665.6,1495.6,1650.1z"/>
	<path d="M791.6,356.3c102.5,3.2,201,6.2,299.9,9.2c90.5,108.7,180.5,216.7,272.8,327.6c-31,32.9-61.3,65.1-94.5,100.3
		c-90.5-107-179.7-212.5-271.1-320.5c-182.5,191.6-362.6,380.7-545.9,573.2c-98.3,1.8-200.9,3.7-308.1,5.7
		c5.9-8.8,8.5-14.1,12.4-18.2C242.1,943,327.3,852.5,412.5,762C530.2,636.9,648,511.9,765.7,386.7
		C775.1,376.8,783.5,365.9,791.6,356.3z"/>
	<path d="M1562.2,646.6c-49.2,52.8-95.1,102.1-141,151.3c-37.7,0-74,0-116.3,0c64.8-76.5,130.4-145.8,193.8-218
		c67.1-1.8,133.5-3.7,203.1-5.6c145.8,138.9,292.9,279.1,441.2,420.5c-22.9,7.5-170.9,7.5-209.3,1
		C1811,880.5,1688,764.9,1562.2,646.6z"/>
	<path d="M814.9,1171.8c-81.6-0.4-145.3-65.3-144.5-147.2c0.8-79.2,67.5-144.9,146.1-143.7c79.2,1.1,145,67,145.1,145.4
		C961.7,1107,896,1172.2,814.9,1171.8z"/>
	<path d="M1427.4,1051.8c0.2-80.8,63.9-145,144.1-145c80.9,0,145.9,63.6,146.6,143.3c0.6,79.7-67.4,148.2-146.4,147.4
		C1491.5,1196.5,1427.3,1131.7,1427.4,1051.8z"/>
	<path d="M1035.4,770c-28.9,0-57.8,0-84.9,0c-14.3-9.3-16.2-22.2-14.9-35.1c2.6-27.3-8.5-56.7,12.7-84.9c25.1,0,51.5-1.2,77.6,0.8
		c6.7,0.5,17.8,10.7,18.1,16.8c1.2,30.8-0.3,61.8-1.3,92.7C1042.5,762.5,1039.5,764.6,1035.4,770z"/>
	<path d="M1534.5,756.5c23.6-3.3,45.4-6.1,68.6,2.8c0,21.8,0,42.3,0,64.3c-22.8,12-45.4,5.9-69.1,4.4
		C1526.2,802.6,1525.6,780.4,1534.5,756.5z"/>
</g>
</svg>
