<?xml version="1.0" encoding="utf-8"?>
<!-- Generator: Adobe Illustrator 22.1.0, SVG Export Plug-In . SVG Version: 6.00 Build 0)  -->
<svg version="1.1" id="图层_1" xmlns="http://www.w3.org/2000/svg" xmlns:xlink="http://www.w3.org/1999/xlink" x="0px" y="0px"
	 viewBox="0 0 2267.7 2267.7" style="enable-background:new 0 0 2267.7 2267.7;" xml:space="preserve">
<g>
	<path d="M1878.5,1201.2c-44.3-44.1-88.1-87.8-135.9-135.5c23.5-138.4-2-275.5-82.4-400.5c-64.1-99.6-151.8-172.7-262.5-216.5
		c-238.2-94.3-496.3-21.6-652,178.4C651,748.9,614.2,891.3,635.3,1046.6c20.9,154,100.8,274.5,213.6,374
		c-12.3,24.7-368.7,383.9-401.1,405c-37.9-36.3-75.3-74.4-115.6-115.4c96.5-96.6,190.8-191.1,286.4-286.8
		C485,1244.6,434.1,1047.6,475.4,830.9c32.3-169.6,115.9-311.5,249.5-422.5c259.3-215.3,629-223.4,895.9-27.1
		C1904.4,590,1974.2,944.8,1878.5,1201.2z"/>
	<path d="M1192,2000.6c-28.8-29.6-53.7-55.6-79.1-81.2c-65.9-66.3-132.1-132.3-198.2-198.4c-8-8-15.6-16.3-24.2-25.3
		c14.2-25,37-40.4,54.8-60.1c17.4-19.2,35.3-37.9,53.5-57.4c29.2,17,46.2,41,66.9,60.5c20.4,19.2,39.9,39.4,59.5,59.5
		c20.2,20.8,40,42,63,66.3c153.2-153.2,303.2-303.3,450.8-450.8c39.9,39.4,77.2,76.2,116.7,115.2c-5.9,6.3-13.2,14.6-21.1,22.5
		c-146,146.2-292.2,292.3-438.1,438.7c-21.2,21.3-41.2,43.9-61.8,65.8C1222,1969.4,1209.1,1982.8,1192,2000.6z"/>
	<path d="M897.6,968c-41.1,0-77.9,0-114.5,0C765.2,762.3,963.9,550.8,1188,560.2c0,37.4,0,75.1,0,116
		c-77.4,6.8-147.1,30.9-203.3,87.7C929.4,819.9,902.7,887.5,897.6,968z"/>
</g>
</svg>
