<?xml version="1.0" encoding="utf-8"?>
<!-- Generator: Adobe Illustrator 22.1.0, SVG Export Plug-In . SVG Version: 6.00 Build 0)  -->
<svg version="1.1" id="图层_1" xmlns="http://www.w3.org/2000/svg" xmlns:xlink="http://www.w3.org/1999/xlink" x="0px" y="0px"
	 viewBox="0 0 2267.7 2267.7" style="enable-background:new 0 0 2267.7 2267.7;" xml:space="preserve">
<g>
	<path d="M351.8,1893.2c8.4-4.5,16.9-8.1,24.5-13.1c25.8-16.9,42.2-39.3,41.6-72c-0.6-30,0-60,0-90c0-448.5,0-896.9,0.1-1345.4
		c0-10.8,0.1-21.7,1.4-32.4c1.9-15.9,11.4-25.7,27.5-27.9c8.2-1.1,16.6-1.5,24.9-1.5c501.8-0.1,1003.6-0.1,1505.4,0.2
		c25.4,0,51.5-0.2,77.4,13.2c1.1,6.5,3.4,13.6,3.4,20.7c0.4,65.8,0.4,131.6,0.4,197.4c0,405.1,0.1,810.2-0.2,1215.3
		c0,28.1,1.2,57.6-6.5,84c-13.8,47.4-38.6,88.1-92.6,100.9c-26.6,6.3-52,13.9-80.7,8.9c-21.5-3.7-44.5,1.3-66.9,2.4
		c-7.5,0.3-15,0.6-22.5,0.6c-479.3,0-958.6-0.2-1437.9,0.5c-50.6,0.1-92.7-17-128-51.1c-22.9-22.2-33.8-51.2-36.8-82.8
		c-0.8-8.3-0.5-16.7-0.5-25c0-408.5,0-816.9,0-1225.4c0-8.3-0.5-16.7,0.4-25c1.9-18.4,12-27.5,29.2-27.5c16.5,0,28.4,10,30.8,26.7
		c0.9,6.5,0.5,13.3,0.5,20c0,198.4,0.1,396.8,0.1,595.2c0,212.3,0.1,424.6-0.2,636.9c-0.1,30.1,9.2,55,30.8,76.3
		c11.5,11.3,23.5,17.7,39.6,17.5C327.9,1890.7,338.7,1892.2,351.8,1893.2z M457,1891.4c11.5,0,20.5,0,29.4,0
		c219.1,0,438.3,0,657.4,0c245.9,0,491.7,0,737.6,0.1c8.3,0,16.9-0.3,24.8,1.9c36.7,9.9,92.3-40.7,92.1-78.6
		c-1.5-255-0.8-510-0.9-765c0-191.7,0-383.4,0-575.1c0-31.5,0-63,0-98.5c-4.5-1-11.8-4-19.2-4.2c-11.6-0.3-23.2,1.7-34.8,1.7
		c-292.5,0.1-585,0.1-877.5,0.1c-185,0-370,0-555.1,0c-8.9,0-17.8,0.8-30.1,1.4c0,12.5,0,23.1,0,33.7c0,405.9,0,811.8-0.1,1217.6
		c0,17.4-2.8,34.8-2.7,52.1c0.1,23,2.1,46.1,2.5,69.1c0.2,9.8-3,19.9-1.8,29.5c4,33.1,0.9,64.7-14.5,94.7
		C461.8,1877,460.3,1882.5,457,1891.4z"/>
	<path d="M360.1,1821.2c-6.7,5.1-13,10-19.8,15.2c-9.9-2.7-18.6-5.1-25.4-7c-13.1-10.2-13.1-22.7-13-35.4c0.1-40.8,0-81.7,0-122.5
		c0-158.4-0.1-316.8-0.1-475.2c0-233.2,0.1-466.5,0.1-699.7c0-13.3,0-26.6,0-41c3.5-5.5,7.6-11.8,11.2-17.4c2.1-1.3,3.4-2.5,5-3
		c31.3-10.9,43.7-2.7,44.8,29.9c0.4,11.7,0.1,23.3,0.1,35c0,187.6,0,375.1,0,562.7c0,234.2,0.1,468.4-0.1,702.6
		C362.7,1783.6,361,1801.8,360.1,1821.2z"/>
	<path d="M595.3,1132.8c0-81.7,0-163.3,0-245c0-7.5-0.3-15.1,0.7-22.5c2.1-15.4,10.6-23.7,26.1-25.7c7.4-1,15-0.6,22.5-0.6
		c143.3,0,286.7,0,430,0c4.2,0,8.3-0.1,12.5,0c24.9,0.9,34.7,10.4,35.5,34.9c0.4,11.7,0.1,23.3,0.1,35c-0.3,78.3-1,156.6-1,234.9
		c0,80,0.7,160,0.9,239.9c0.1,34.4-8.1,42.4-43.1,42.4c-146.7,0.1-293.3,0-440,0c-5.8,0-11.7,0.3-17.5-0.5
		c-17-2.4-24.8-10.6-26.4-27.9c-0.7-7.4-0.4-15-0.4-22.5C595.3,1294.5,595.3,1213.7,595.3,1132.8z M657.8,901.8
		c0,154.4,0,307.1,0,459.4c25.7,5.9,383.6,5.2,402.1-0.4c4.7-33.5,3-440.7-2-459.1C925.3,901.8,792.4,901.8,657.8,901.8z"/>
	<path d="M1237.5,724.8c-195.8,0-391.7,0-587.5,0c-9.2,0-18.4,0.6-27.5-0.6c-16.6-2.1-26.8-14.4-26.9-30.7
		c-0.1-16.9,9.2-27.1,27.6-29.3c6.6-0.8,13.3-0.4,20-0.4c345.8,0,691.7,0,1037.5,0c52.5,0,104.9,0,157.4,0.1c6.7,0,13.4-0.4,20,0.7
		c14.3,2.4,23.9,13.4,24.9,27.3c1,14.3-6.2,26.4-20.7,30.4c-9.4,2.6-19.7,2.5-29.6,2.5C1634.2,724.8,1435.8,724.7,1237.5,724.8
		C1237.5,724.8,1237.5,724.8,1237.5,724.8z"/>
	<path d="M1239,1601.6c-195,0-390.1,0-585.1,0c-10,0-20.1,0.5-30-0.5c-17.7-1.6-26.8-10.6-28.1-26.1c-1.4-16.5,7.4-29.2,24-33.1
		c6.4-1.5,13.2-1.4,19.9-1.4c275.9,0,551.8,0,827.6,0.3c15.7,0,31.4,3.2,47.1,3.2c13.2,0,26.3-3.5,39.5-3.6
		c95-0.3,190-0.1,285.1,0.1c7.4,0,15.2,0.1,22.2,2.1c15.3,4.3,23.3,17.1,21.6,32.2c-1.6,13.7-11.5,24.2-26.1,26
		c-8.2,1-16.6,0.6-25,0.6C1634.1,1601.6,1436.6,1601.6,1239,1601.6C1239,1601.6,1239,1601.6,1239,1601.6z"/>
	<path d="M1866.6,488.3c6,5.5,12,10.9,16.8,15.3c-3.1,14.4-5.3,24-7.9,35.9c-5.7,2.7-12.2,8.2-18.8,8.3c-23,0.5-46-1.6-69-1.5
		c-19,0.1-38.1,2.7-57.1,2.7c-361.6,0.2-723.2,0.1-1084.8,0.1c-8.3,0-16.8,0.4-24.9-1.1c-16.8-3.2-26.1-15.6-25.3-32
		c0.8-16.8,10.5-26.1,29.2-27.5c6.6-0.5,13.3-0.2,20-0.2c384.9,0,769.9,0,1154.8,0C1820.5,488.3,1841.3,488.3,1866.6,488.3z"/>
	<path d="M1559.8,1250.8c-90.8,0-181.5,0-272.3,0c-7.5,0-15.1,0.4-22.5-0.5c-15.1-1.8-26-13.5-27-28.2c-1-14.2,9-27.6,23.8-30.9
		c6.4-1.4,13.2-1.3,19.9-1.3c186.5-0.1,373-0.1,559.5,0c6.6,0,13.5-0.1,19.8,1.5c13.6,3.4,22.1,15.8,21.7,29.8
		c-0.4,14-9.6,25.8-23.4,28.4c-7.3,1.4-14.9,1-22.4,1.1C1744.6,1250.8,1652.2,1250.7,1559.8,1250.8z"/>
	<path d="M1560.1,900.1c-90.7,0-181.5,0-272.2,0c-7.5,0-15.1,0.5-22.4-0.6c-16.7-2.4-27.7-15.2-27.4-30.5
		c0.3-15.6,11.7-27.7,28.3-29.5c6.6-0.7,13.3-0.3,20-0.3c183.2,0,366.3,0,549.5,0c6.7,0,13.4-0.4,20,0.5
		c15.8,2.1,26.1,13.1,27.1,27.8c1,15.1-7.6,27.4-23.2,31.1c-8,1.9-16.5,1.6-24.8,1.6C1743.3,900.2,1651.7,900.1,1560.1,900.1z"/>
	<path d="M1560.2,1075.4c-91.6,0-183.2,0-274.7,0c-7.5,0-15.1,0.3-22.4-1c-15.3-2.9-25.3-15.5-25-30c0.3-14.5,10.6-26.4,26.1-29.1
		c5.7-1,11.6-0.8,17.4-0.8c186.5,0,373,0,559.4,0c5,0,10-0.2,15,0.5c16.7,2.4,27.2,14.4,26.9,30.5c-0.3,16-10.9,27.5-28,29.5
		c-7.4,0.8-15,0.5-22.5,0.5C1741.7,1075.4,1650.9,1075.4,1560.2,1075.4z"/>
	<path d="M1560.2,1426.3c-90.7,0-181.5,0-272.2,0c-7.5,0-15,0.4-22.5-0.4c-15.5-1.8-26.5-13.3-27.3-27.7c-0.9-14.4,8.8-28,23.3-31.5
		c6.4-1.5,13.2-1.4,19.8-1.4c185.6-0.1,371.3-0.1,556.9,0c6.6,0,13.4-0.2,19.9,1.2c15.7,3.3,25,15.1,24.8,29.9
		c-0.3,15.9-11.1,27.6-28,29.5c-7.4,0.8-15,0.4-22.5,0.4C1741.7,1426.3,1650.9,1426.3,1560.2,1426.3z"/>
	<path d="M1560.5,1777c-91.7,0-183.4,0-275,0c-6.7,0-13.4,0.4-20-0.4c-14.8-1.7-24.9-11.5-27-25.2c-1.9-12.7,5.9-26.9,19.3-31.7
		c7.6-2.7,16.3-3.4,24.4-3.4c185.9-0.2,371.7-0.2,557.6-0.1c6.6,0,13.5,0,19.8,1.6c14.9,3.7,23.9,16.5,23.1,31.5
		c-0.8,15.2-10.6,25.4-27.2,27.3c-7.4,0.8-15,0.5-22.5,0.5C1742.2,1777,1651.4,1777,1560.5,1777
		C1560.5,1777,1560.5,1777,1560.5,1777z"/>
</g>
</svg>
