<?xml version="1.0" encoding="utf-8"?>
<!-- Generator: Adobe Illustrator 22.1.0, SVG Export Plug-In . SVG Version: 6.00 Build 0)  -->
<svg version="1.1" id="图层_1" xmlns="http://www.w3.org/2000/svg" xmlns:xlink="http://www.w3.org/1999/xlink" x="0px" y="0px"
	 viewBox="0 0 2267.7 2267.7" style="enable-background:new 0 0 2267.7 2267.7;" xml:space="preserve">
<g>
	<path d="M1077.5,756.3c-11.7-13.4-25.3-25-33.6-39.5c-8.4-14.7-11.7-32.4-18.3-51.6c-36.3-10.5-41.6-42.6-43.2-76.4
		c-0.8-16.3-0.1-32.7-0.1-53.2c1.6-1.8,6.1-7,10.7-12.2c-1.5-0.4-3.1-0.8-4.6-1.2c9.7-43.8,16.2-88.5,29.7-131
		c18.3-57.9,51.5-79.9,112.1-82.1c19.4-0.7,38.9-0.5,58.4,0.1c54.2,1.6,90,28.1,108.6,79.3c15.6,42.8,22.4,87.1,24.6,134.2
		c3.7,4.2,8.2,9.4,16.8,19.1c-5.6,31.1-10.2,66.4-19.4,100.4c-2.7,10.1-18.7,16.6-32,27.6c-6.7,27.1-11.3,60.8-43.2,76.3
		c-8.3,19.7-4.1,35.9,8.1,47.9c15.2,14.9,31.2,30.8,50,39.5c47.2,22,96,40.4,144.3,59.9c28.4,11.5,57.9,20.8,85.4,33.9
		c46.3,22.1,55.3,66.4,65.3,110.1c-25.8,9.5-843.3,11-873.6,3.1c-5.6-38.4,19-90.5,55.8-110.5c24.1-13.1,50-23.9,76.4-31.4
		c55.4-16,108.2-37.8,158.9-65C1054.8,812.2,1069.8,793.8,1077.5,756.3z"/>
	<path d="M1774.9,1625.7c-77.7-42.5-150.9-82.7-226.8-124.2c59.7-129.1,99.2-263.8,107.9-405.4c25.7-7.8,305.5-8.5,338-0.4
		C1982.7,1297.3,1909.9,1473.1,1774.9,1625.7z"/>
	<path d="M305.2,1097.1c118.1,0,229.3,0,344.3,0c7.1,44,12.2,87.2,21.3,129.6c9.5,43.9,21.2,87.5,34.8,130.4
		c13.2,41.8,30.1,82.5,45.5,124.3c-78.3,43.7-156.4,87.4-237.4,132.6C385.8,1467.9,318.4,1296.2,305.2,1097.1z"/>
	<path d="M1589,1093.9c10.8,80.1-51.1,305.9-103.8,385.4c-95.5-32.7-194.1-57.4-295.3-65.3c-7.2-23.9-8.9-283.2-2.7-319.1
		C1209.7,1088.2,1555.6,1086.9,1589,1093.9z"/>
	<path d="M722.8,1091.8c131,0,262.4,0,393.1,0c8.6,26.7,8.9,288.3,0.4,317.4c-49.6,5.8-100.4,9.6-150.4,18.3
		c-49.2,8.5-97.5,22-146.5,33.4C778.4,1410.4,710.9,1173.6,722.8,1091.8z"/>
	<path d="M1795.5,673.4c-6.8,32.9,12.4,74.2-25,86.7c-16.1,27.9-28.6,49.7-44.1,76.7c-1.5,9.9,7.7,21.3,18.6,30.6
		c10.8,9.2,22.4,18.7,35.3,24c39.2,16.1,74.3,39.8,118,48.6c40.8,8.3,82,28.2,89.8,79.3c0.9,5.7,0.1,11.7,0.1,17.1
		c-25.5,6.8-299.6,7.4-327.8,1.1c-11.5-28.4-19.1-59.2-35.4-84.4c-15.5-23.9-40.1-42-62.3-64.2c16.5-16.5,44-28.2,44-51.1
		c-16-28.1-28.4-49.8-44.2-77.5c-34-15.5-23.2-54-23.6-86.9c2.8-14.6,5.1-29.4,8.6-43.9c6.9-28.7,12-58,22.2-85.5
		c11-29.6,36.3-43.4,67.5-44.8c18.4-0.8,36.8-0.6,55.3-0.2c36.8,0.9,63,18.9,74.6,53.4c9.1,26.9,13.5,55.4,20,83.2
		C1789.9,648.3,1792.7,660.9,1795.5,673.4z"/>
	<path d="M518.5,678.7c4-16.2,7.2-27.7,9.6-39.4c2.3-11,4.2-22.1,5.4-33.3c10.9-104.7,80.3-119.8,169.9-96.8
		c9,2.3,17.6,10.5,24,17.9c7.3,8.3,15,18.3,17.3,28.7c10.4,48.5,20.1,97.1,27.3,146.1c2.1,14.2-4.6,29.7-6.9,42.7
		c-9.9,7.4-17.2,12.9-24.5,18.3c1.1,0.7,2.1,1.4,3.2,2c-12.6,21.7-25.1,43.3-40.7,70.2c-2.4,26.1,26.3,37.2,46.9,58.8
		c-60.6,29.7-77.7,87.4-95.7,142.3c-36.7,6.4-304.1,5.1-328.5-1.8c2.1-32.3,14.2-59.2,44.2-74.6c19-9.7,39.9-15.7,59.7-23.9
		c38.7-16,77.7-31.4,115.6-49.1c21.7-10.1,39.4-25.8,43.5-50.4c-14.1-24.7-27.5-48.3-40.9-71.9c0.2-0.1,0.5-0.1,0.7-0.2
		c-8.9-12.9-21-24.8-25.8-39.1C517.7,710.4,519.5,693.1,518.5,678.7z"/>
	<path d="M848.4,1519.3c88.5-29.8,177-45.8,272.7-44.5c7.2,141.8-2.4,282,2.5,425.4C1060.9,1861.2,863.5,1584.1,848.4,1519.3z"/>
	<path d="M1185.4,1903c0-143.3,0-282,0-420.5c41.5-13,222,24.9,272.3,58.2c-60.7,116.2-138.5,220.8-223.5,320.2
		C1221.7,1875.5,1212.7,1895.7,1185.4,1903z"/>
	<path d="M568,1664c66.6-47.8,138.4-85.4,216.2-118.8c65.1,122.6,142.7,233.7,231,338.2C930.9,1905,641,1762.7,568,1664z"/>
	<path d="M1722.8,1678.1c-120.1,110.7-259.9,180-423.7,206.1c38.5-51.7,78.6-102.2,115.1-155.2c36.5-52.9,69.5-108.3,104.2-162.8
		C1554.3,1570.2,1693,1644.8,1722.8,1678.1z"/>
</g>
</svg>
