<?xml version="1.0" encoding="utf-8"?>
<!-- Generator: Adobe Illustrator 22.1.0, SVG Export Plug-In . SVG Version: 6.00 Build 0)  -->
<svg version="1.1" id="图层_1" xmlns="http://www.w3.org/2000/svg" xmlns:xlink="http://www.w3.org/1999/xlink" x="0px" y="0px"
	 viewBox="0 0 2267.7 2267.7" style="enable-background:new 0 0 2267.7 2267.7;" xml:space="preserve">
<g>
	<path d="M1052.6,481.3c0-24.1,0.1-46.3,0-68.4c-0.2-48.2,41.7-93.7,85.6-103.2c56.8-12.3,119.9,29.4,125.8,87.5
		c1.7,16.5,1.1,33.3,1.7,50c0.4,10.9,1.2,21.8,1.7,32.5c27.3,9,52.7,17.2,77.9,25.8c103.9,35.4,187.3,99.2,254.1,185.1
		c58.7,75.5,91.5,162.4,107.1,255.9c4.2,25.4,3.4,51.8,3.7,77.7c0.5,55.6-0.9,111.3,0.4,166.9c2.5,101.8,24.4,198.2,85,282.8
		c5.9,8.2,9.9,17.8,14.7,26.7c1.7-1.7,3.4-3.4,5.1-5.1c10.8,13.8,21.8,27.5,32.5,41.3c26.1,33.5,58.9,60.7,87.5,91.8
		c5.6,6.1,11,12.5,16.1,19.1c17.6,22.9,19.1,48.4,7,73.4c-12.1,24.9-32.1,39.7-61.7,39.3c-89.9-1.2-179.8-2.1-269.7-2.4
		c-43.4-0.1-86.8,1.7-130.2,2.2c-35.1,0.4-70.2,0.2-105.4,0.2c-316.2,0-632.4,0-948.6,0c-8.3,0-16.7-0.1-25-0.2
		c-28.3-0.3-46.7-15.7-58.6-39.7c-12.5-25.2-7.8-49.2,9.5-70.1c12.3-14.9,27-27.8,40.4-41.9c46-48.1,92.3-96.1,126.6-153.8
		c44.9-75.4,70.3-156.8,71.9-244.8c1.1-61.2-0.8-122.4,0.4-183.6c3.8-196.2,86.1-351.2,248.1-462.4c51.4-35.3,108.2-60.2,169.1-74.8
		C1033.4,487.1,1041.3,484.6,1052.6,481.3z"/>
	<path d="M917.5,1822.3c163.6,0,322.3,0,480.6,0c14.2,56.3-28.8,148-92.4,193.9c-82.6,59.5-171.5,67.6-261.1,19.1
		C962.9,1991.1,920.1,1920.3,917.5,1822.3z"/>
	<path d="M2063.9,1028.7c-23.8,0-45.6,0-68.5,0c-15.8-329-167.1-573.8-453.6-736.8c11.4-21.4,22-41.4,32.5-61.3
		C1875.9,371.2,2077.5,720.9,2063.9,1028.7z"/>
	<path d="M744.1,228c11.7,22.7,22,42.8,33,64.3c-285.6,163.3-437,407-452.5,734.8c-23.2,5.1-45.7,3.8-71.8,0.5
		c0.5-136.2,29.5-264.8,88.6-386.1C429.6,460.6,563,323.1,744.1,228z"/>
	<path d="M817.9,374.2c4.2,5.9,7.9,10.1,10.3,14.9c7.9,15.5,15.4,31.2,23.6,48.2c-228.8,131-351.1,326.2-363.2,589.7
		c-23.2,7.2-45.9,2.8-72.3,2.5c-1.6-98.4,17.8-191.5,55.2-280.6C545.9,571.3,679,442.7,817.9,374.2z"/>
	<path d="M1904.3,1028.9c-25.8,0-47.5,0-72.3,0c-12.3-262.8-133.8-458.8-363.2-591.2c8.2-22.1,19.5-42.6,33.5-64.7
		c121.5,63.9,218.6,152.7,290.3,268.1C1865.4,758.2,1903.5,886.3,1904.3,1028.9z"/>
</g>
</svg>
