<?xml version="1.0" encoding="utf-8"?>
<!-- Generator: Adobe Illustrator 22.1.0, SVG Export Plug-In . SVG Version: 6.00 Build 0)  -->
<svg version="1.1" id="图层_1" xmlns="http://www.w3.org/2000/svg" xmlns:xlink="http://www.w3.org/1999/xlink" x="0px" y="0px"
	 viewBox="0 0 2267.7 2267.7" style="enable-background:new 0 0 2267.7 2267.7;" xml:space="preserve">
<g>
	<path d="M437.2,1411.3c35.4,47.6,35.2,60.6,1.3,107.9c0,12.3,0,25.5,0,38.4c12.1,16.4,23.6,32,35.2,47.8c0,61.9,0,123.6,0,190.1
		c-43.2,4.1-85,1.2-127,1.6c-2.8-6.7-6.1-11-6.1-15.4c-0.5-53.4-1.1-106.9-0.1-160.3c0.2-10,5.9-20.7,11.4-29.6
		c7.6-12.3,17.5-23.2,26.6-34.9c0-12.6,0-24.6,0-36.4c-35.2-52.1-35.3-59.5,0-107.8c0-41.7,0-85.2,0-131.7
		c-17.1-8.2-34.3-16.7-51.7-24.7c-33.6-15.5-63.8-35.3-86-65.4C177.6,1105.3,210.3,986,310,940c97-44.7,194.5-88.4,291.8-132.6
		c195.6-89,391.1-178.1,586.7-267.1c13.2-6,26.7-11.2,43.4-18.3c295.6,135.2,592.4,271,889,407.1c4.8,2.2,7.5,8.7,12.5,14.7
		c-5.3,4.8-8.9,10.1-13.8,12.3c-263.5,120.8-527.1,241.4-790.7,361.9c-32,14.6-64.1,28.8-97.9,44c-16.5-6.9-33.4-13.4-49.8-20.8
		c-240.9-109.8-481.7-219.7-722.5-329.4c-14.4-6.5-28.7-13.5-43.6-18.3c-55.7-17.7-110.7,6.3-134.2,57.6
		c-23.2,50.7-6,103.1,45.3,134.6c14.2,8.7,30,14.9,51.1,25.2c1-19.5,2-34.4,2.4-49.3c0.4-14.5,0.1-29.1,0.1-44.5
		c8.5-10.4,16.8-20.5,26.9-32.8c16.4,6.9,31.5,13.2,50.9,21.3c-24.8,26.3-20.3,55.8-20.3,84.3C437.1,1264,437.2,1338,437.2,1411.3z"
		/>
	<path d="M2138.3,1185c0,25.3,0,43,0,64.5c-111.5,51.5-223.5,103.3-337.7,156.1c-0.8,13.9-2.1,26.9-2.1,39.9
		c-0.2,71.6-0.5,143.2,0.3,214.9c0.3,24.2-7.8,41.6-28.8,54.4c-185.6,113.4-383.7,180.8-604.5,165c-160.8-11.6-307.3-67-445.7-146.8
		c-60.2-34.7-59.9-35-59.9-106.2c0.1-71.5,0-143,0-218.4c-58.4-27-116.4-53.7-175.1-80.9c0-21.1,0-40,0-64.8
		c45.4,15.5,84.6,36.4,125,54.1c42.2,18.6,83.9,38.3,125.9,57.4c40.9,18.6,81.8,37.1,122.7,55.7c40.9,18.6,81.7,37.4,122.5,56
		c42,19.1,84,38.1,126,57.2c40.8,18.5,81.5,37,123,55.8C1531.6,1461.5,1831.7,1324.8,2138.3,1185z"/>
</g>
</svg>
